<?xml version="1.0" standalone="no"?>
<!DOCTYPE svg PUBLIC "-//W3C//DTD SVG 20010904//EN"
 "http://www.w3.org/TR/2001/REC-SVG-20010904/DTD/svg10.dtd">
<svg version="1.0" xmlns="http://www.w3.org/2000/svg"
 width="432.000000pt" height="432.000000pt" viewBox="0 0 432.000000 432.000000"
 preserveAspectRatio="xMidYMid meet">
<g transform="translate(0.000000,432.000000) scale(0.100000,-0.100000)"
fill="#000000" stroke="none">
<path d="M1907 4305 c-901 -114 -1621 -748 -1842 -1622 -47 -187 -59 -292 -59
-523 0 -154 5 -244 17 -319 77 -473 281 -876 612 -1206 330 -331 733 -535
1206 -612 144 -23 494 -23 638 0 473 77 876 281 1206 612 331 330 535 733 612
1206 23 144 23 494 0 638 -77 473 -281 876 -612 1206 -328 329 -738 537 -1201
611 -138 22 -442 27 -577 9z m1655 -743 l23 -23 0 -1379 0 -1379 -23 -23 -23
-23 -1379 0 -1379 0 -23 23 -23 23 -2 1367 c-2 1084 0 1372 10 1392 7 13 24
30 37 37 20 10 308 12 1392 10 l1367 -2 23 -23z"/>
<path d="M846 3479 c-26 -20 -26 -21 -26 -158 0 -185 -4 -181 182 -181 136 0
137 0 157 26 19 24 21 40 21 156 0 124 -1 130 -25 153 -23 24 -29 25 -153 25
-116 0 -132 -2 -156 -21z" fill="#ED1D3B"/>
<path d="M1748 3403 c-38 -46 -799 -1196 -827 -1251 -17 -33 -43 -101 -57
-149 -24 -79 -27 -105 -28 -248 -1 -173 7 -215 65 -367 99 -257 350 -474 639
-554 91 -25 326 -26 430 -1 289 70 536 279 648 550 58 139 67 186 67 362 -1
179 -14 248 -69 370 -76 164 -169 279 -313 386 -52 39 -93 73 -91 77 2 4 68
105 146 224 128 193 148 218 183 232 33 14 96 16 404 16 l365 0 121 183 122
182 -614 3 -614 3 -19 -23 c-41 -51 -756 -1116 -756 -1127 0 -5 26 -2 58 6 84
21 225 20 297 -1 153 -45 288 -156 350 -287 110 -233 69 -466 -114 -646 -199
-196 -541 -201 -748 -9 -174 160 -229 376 -153 592 31 91 140 259 689 1067
151 221 271 407 271 419 0 4 -98 8 -218 8 -196 0 -220 -2 -234 -17z"/>
</g>
</svg>
